<svg width="198" height="70" viewBox="0 0 198 70" fill="none" xmlns="http://www.w3.org/2000/svg">
<g clip-path="url(#clip0_48_245)" filter="url(#filter0_d_48_245)">
<path d="M0 70L18.7188 0H193.375L187.091 23.5013L174.656 70H0Z" fill="#29324E"/>
<path d="M29.0778 26.5766H43.6859L36.751 52.5007H50.3339L57.2656 26.5766H71.8705L74.2982 17.5024H31.5055L29.0778 26.5766Z" fill="white"/>
<path d="M104.272 35.9093L90.1284 17.5024H78.725L69.3656 52.5007H82.5971L87.5105 34.1293L101.667 52.5007H113.067L122.427 17.5024H109.195L104.272 35.9093Z" fill="white"/>
<path d="M167.253 32.3688L169.646 23.4173L161.898 17.5024H136.789L125.712 23.5077L119.563 46.4954L127.43 52.5007H152.539L163.452 46.5858L165.844 37.6343H152.265L151.346 41.0715L149.183 42.2441H136.412L134.642 40.8938L137.795 29.1093L140.284 27.7589H153.055L154.593 28.9316L153.674 32.3688H167.253Z" fill="white"/>
</g>
<defs>
<filter id="filter0_d_48_245" x="-4" y="0" width="202" height="78" filterUnits="userSpaceOnUse" color-interpolation-filters="sRGB">
<feFlood flood-opacity="0" result="BackgroundImageFix"/>
<feColorMatrix in="SourceAlpha" type="matrix" values="0 0 0 0 0 0 0 0 0 0 0 0 0 0 0 0 0 0 127 0" result="hardAlpha"/>
<feOffset dy="4"/>
<feGaussianBlur stdDeviation="2"/>
<feComposite in2="hardAlpha" operator="out"/>
<feColorMatrix type="matrix" values="0 0 0 0 0 0 0 0 0 0 0 0 0 0 0 0 0 0 0.25 0"/>
<feBlend mode="normal" in2="BackgroundImageFix" result="effect1_dropShadow_48_245"/>
<feBlend mode="normal" in="SourceGraphic" in2="effect1_dropShadow_48_245" result="shape"/>
</filter>
<clipPath id="clip0_48_245">
<rect width="194" height="70" fill="white"/>
</clipPath>
</defs>
</svg>
